<svg width="24" height="25" viewBox="0 0 24 25" fill="none" xmlns="http://www.w3.org/2000/svg">
<path d="M5 22.0564C4.45 22.0564 3.979 21.8607 3.587 21.4694C3.19567 21.0774 3 20.6064 3 20.0564V6.0564C3 5.5064 3.19567 5.03573 3.587 4.6444C3.979 4.2524 4.45 4.0564 5 4.0564H6V2.0564H8V4.0564H16V2.0564H18V4.0564H19C19.55 4.0564 20.021 4.2524 20.413 4.6444C20.8043 5.03573 21 5.5064 21 6.0564V20.0564C21 20.6064 20.8043 21.0774 20.413 21.4694C20.021 21.8607 19.55 22.0564 19 22.0564H5ZM5 20.0564H19V10.0564H5V20.0564ZM5 8.0564H19V6.0564H5V8.0564ZM5 8.0564V6.0564V8.0564Z" fill="#EF5356"/>
</svg>
