<svg width="56" height="56" viewBox="0 0 56 56" fill="none" xmlns="http://www.w3.org/2000/svg">
<path d="M9.51207 0.695038L46.5316 0.509277V16.7968C46.5316 16.7968 50.9749 18.7138 51.5107 19.063C53.1184 20.1256 55.5 20.5491 55.5 25.9213V49.9736C55.5 53.0349 53.0142 55.5093 49.9552 55.5093H6.0587C2.99234 55.5093 0.513948 53.0275 0.513948 49.9736V27.2588C0.513948 26.8576 0.558604 26.1294 0.513948 25.2526C0.417194 23.3355 0.789326 21.4556 2.72441 20.0364C3.84824 19.2117 5.29211 18.6618 6.52014 18.112C8.18728 17.3615 9.51207 16.7819 9.51207 16.7819V0.695038Z" fill="white"/>
<path d="M9.51208 20.0364L6.63178 21.3219L6.60201 21.3368C5.39631 21.8123 4.63716 22.2581 4.17572 22.7114L9.51952 25.5944V20.0364H9.51208ZM49.3301 21.2922L46.5316 20.0513V25.5795L51.7861 22.7411C51.3024 22.325 50.5283 21.8866 49.3301 21.2922Z" fill="white"/>
<path d="M55.2991 22.8526C55.2991 22.8674 55.3066 22.8749 55.3066 22.8823C55.3066 22.8749 55.2991 22.86 55.2991 22.8526ZM35.1445 25.6613C36.2907 25.0297 37.1987 24.1603 37.7569 23.1795C37.9355 23.016 38.0397 22.8005 38.0546 22.5628C38.0769 22.5033 38.1067 22.4365 38.129 22.377H38.0546C38.0397 21.8717 37.6155 21.4705 37.1019 21.4705C36.6107 21.4705 36.2014 21.842 36.1567 22.3324H36.1418C35.405 23.2538 34.43 23.9003 33.2243 24.3609C32.0186 24.8216 30.5747 25.1188 28.8927 25.1188C27.1511 25.1188 25.7073 24.777 24.3527 24.2272C23.0205 23.6922 21.8967 22.7485 21.1375 21.5374C20.3932 20.3411 20.0211 19.063 20.0211 17.5993C20.0211 16.0983 20.4007 14.6568 21.0705 13.2673C21.718 11.9075 22.7674 10.7856 24.0773 10.0425C25.4021 9.27718 26.9204 8.88336 28.8183 8.88336C31.0585 8.88336 32.8075 9.47037 34.0579 10.6147C35.3082 11.7589 35.6804 13.1856 35.6804 14.8871C35.6804 15.8382 35.5613 16.7522 35.1222 17.6364C34.6831 18.5206 34.2514 19.0036 33.5369 19.5312C33.0085 19.9324 31.8177 20.4005 31.4753 20.4005C31.3637 20.4005 31.2669 20.3559 31.185 20.2668C31.1032 20.185 31.066 20.0513 31.066 19.8804C31.0883 19.5609 31.1404 19.2414 31.2148 18.9219L32.7778 12.9552C32.8522 12.8215 32.9117 12.6803 32.9117 12.5168L32.9043 12.4723L32.9117 12.4425H32.9043V12.4351C32.9043 11.9373 32.4875 11.5286 31.9814 11.5286C31.7358 11.5286 31.5051 11.6178 31.3265 11.7887C31.1553 11.9596 31.0511 12.1899 31.0511 12.4351L31.0585 12.5168C31.0585 12.5763 31.0808 12.6283 31.0957 12.6803L30.999 13.0295C30.4036 12.0859 29.0044 11.5063 27.7465 11.5063C26.6823 11.5063 25.0895 12.2419 24.0029 13.8989C23.1991 15.1695 22.7377 16.6259 22.6781 18.1194C22.6335 19.4346 23.0279 20.6011 23.7945 21.3888C24.5611 22.1764 25.5063 22.4067 26.0943 22.4067C27.1735 22.4067 28.1336 22.0129 28.9597 21.2253C29.0416 21.582 29.25 21.894 29.5477 22.1021C29.8379 22.3027 30.277 22.4067 30.865 22.4067C33.0308 22.4067 35.0254 21.2773 36.1269 19.7615C37.0721 18.476 37.6006 16.7448 37.6006 14.9837C37.6006 13.5051 37.3624 12.1379 36.633 10.8896C35.9037 9.64127 34.9659 8.67531 33.589 7.99915C32.2121 7.32298 30.6417 6.98118 28.8704 6.98118C26.7865 6.98118 24.9258 7.40471 23.3033 8.24435C21.6808 9.08399 20.4007 10.3472 19.4704 12.019C18.5326 13.6983 18.0637 15.5039 18.0637 17.4506C18.0488 19.1671 18.4731 20.8538 19.2992 22.3622C20.1328 23.9151 21.4575 25.1411 23.0651 25.8693C24.7546 26.6421 26.7492 27.0285 29.0713 27.0285C31.453 27.0285 33.4848 26.5752 35.1445 25.6613ZM29.3988 17.7181C29.1234 18.5281 28.8034 19.1448 28.4313 19.5683C28.1708 19.8655 27.9028 20.081 27.6424 20.2222C27.2926 20.4154 27.0321 20.564 26.6302 20.564C26.0943 20.564 25.417 20.3559 25.0598 19.9398C24.6951 19.5237 24.5165 18.8773 24.5165 18.0005C24.5165 17.3466 24.8588 16.5887 25.1193 15.7416C25.3798 14.8946 25.7668 14.4636 26.2804 14.0029C26.7939 13.5422 27.2628 13.4159 27.8656 13.4159C28.4313 13.4159 29.0267 13.5794 29.3914 13.9955C29.7635 14.4116 29.9942 14.7385 29.9942 15.5187C30.0017 16.2098 29.6667 16.9082 29.3988 17.7181Z" fill="#FAAE41"/>
<path d="M55.3066 22.8823C55.3066 22.8674 55.2991 22.86 55.2991 22.8526C54.6516 20.6086 52.5304 19.5609 50.6251 18.6172L50.5953 18.6024L46.5317 16.7893L46.5316 0.509277L9.51207 0.695038V16.7819L5.47818 18.5801C3.16353 19.494 0.513955 20.9801 0.513955 24.3386V49.981C0.513955 53.0275 2.99979 55.5093 6.05126 55.5093H49.9627C53.0142 55.5093 55.5 53.0275 55.5 49.981V24.3386C55.5 23.8037 55.4331 23.3207 55.3066 22.8823ZM46.5316 20.0513L49.3301 21.2996C50.5358 21.894 51.3024 22.3324 51.7861 22.7411L46.5316 25.5795V20.0513ZM12.4891 3.65235L43.5546 3.49631V27.1845L28.7438 35.1871C28.2898 35.4323 27.739 35.4323 27.285 35.1871L12.4891 27.1994V3.65235ZM9.51208 20.0364L9.51208 25.5944L4.16828 22.704C4.62972 22.2507 9.51208 20.0364 9.51208 20.0364ZM52.523 49.981C52.523 51.3928 51.3768 52.5371 49.9627 52.5371H6.05126C4.63716 52.5371 3.491 51.3928 3.491 49.981V25.7207L25.8561 37.81C26.5259 38.1741 27.2627 38.3524 28.007 38.3524C28.7438 38.3524 29.4806 38.1741 30.1579 37.81L52.523 25.7207V49.981Z" fill="#FAAE41"/>
</svg>
