<svg width="24" height="24" viewBox="0 0 24 24" fill="none" xmlns="http://www.w3.org/2000/svg">
<path fill-rule="evenodd" clip-rule="evenodd" d="M4.10288 12.0331C4.17547 12.1344 4.26287 12.2522 4.36496 12.3827C4.72695 12.8457 5.26915 13.4641 5.98586 14.0814C7.42174 15.318 9.5161 16.5166 12.2499 16.5166C14.9769 16.5166 16.9474 15.3239 18.2579 14.1016C18.914 13.4897 19.3972 12.8764 19.7154 12.4172C19.8161 12.2718 19.8998 12.1425 19.9669 12.0345C19.8858 11.9203 19.7839 11.7819 19.6618 11.6254C19.2978 11.1584 18.7589 10.5361 18.0621 9.91555C16.659 8.66606 14.685 7.4834 12.2499 7.4834C9.8065 7.4834 7.71044 8.6732 6.18234 9.9343C5.42502 10.5593 4.82693 11.1859 4.41875 11.6559C4.29541 11.7979 4.18984 11.9251 4.10288 12.0331ZM20.8708 12.0053C21.572 12.3262 21.5717 12.3268 21.5717 12.3268L21.5713 12.3276L21.5704 12.3294L21.5677 12.3346L21.5594 12.3506C21.5526 12.3638 21.5431 12.3818 21.5308 12.4044C21.5064 12.4495 21.4711 12.513 21.4249 12.5921C21.3325 12.7502 21.1958 12.9715 21.0133 13.2349C20.649 13.7606 20.0977 14.4606 19.3456 15.162C17.84 16.5663 15.5001 18 12.2499 18C9.00671 18 6.55705 16.5721 4.94319 15.1822C4.13502 14.4862 3.52592 13.7913 3.11782 13.2694C2.91337 13.0079 2.75825 12.7883 2.6528 12.6318C2.60004 12.5534 2.55963 12.4907 2.53161 12.4463C2.51759 12.424 2.50667 12.4063 2.49884 12.3935L2.48942 12.378L2.48645 12.373L2.4854 12.3712L2.48498 12.3705C2.48498 12.3705 2.48464 12.37 3.16191 12.0053C2.51409 11.5948 2.51441 11.5943 2.51441 11.5943L2.51591 11.5922L2.51909 11.5876L2.52951 11.573C2.53824 11.5607 2.55055 11.5436 2.56639 11.522C2.59805 11.4786 2.64383 11.4171 2.70326 11.34C2.82205 11.1858 2.99575 10.9687 3.22064 10.7098C3.66956 10.1929 4.32718 9.50355 5.16434 8.81266C6.8252 7.44199 9.27315 6.00002 12.2499 6.00002C15.2351 6.00002 17.5716 7.44912 19.1238 8.83141C19.9047 9.52676 20.5048 10.2203 20.9102 10.7403C21.1134 11.0009 21.2688 11.2194 21.3748 11.3749C21.4279 11.4527 21.4686 11.5148 21.4968 11.5587C21.5109 11.5807 21.5219 11.5981 21.5297 11.6106L21.539 11.6257L21.542 11.6304L21.5433 11.6327C21.5433 11.6327 21.5437 11.6332 20.8708 12.0053ZM3.16191 12.0053L2.51441 11.5943L2.25 11.9738L2.48498 12.3705L3.16191 12.0053ZM20.8708 12.0053L21.5433 11.6327L21.75 11.9725L21.5717 12.3268L20.8708 12.0053ZM11.9722 10.6549C11.203 10.6549 10.5706 11.2549 10.5706 12.0053C10.5706 12.7557 11.203 13.3556 11.9722 13.3556C12.7415 13.3556 13.3738 12.7557 13.3738 12.0053C13.3738 11.2549 12.7415 10.6549 11.9722 10.6549ZM9.01499 12.0053C9.01499 10.4449 10.3341 9.17157 11.9722 9.17157C13.6103 9.17157 14.9294 10.4449 14.9294 12.0053C14.9294 13.5657 13.6103 14.839 11.9722 14.839C10.3341 14.839 9.01499 13.5657 9.01499 12.0053Z" fill="#F2884B"/>
</svg>
