<svg width="24" height="25" viewBox="0 0 24 25" fill="none" xmlns="http://www.w3.org/2000/svg">
<rect y="0.509277" width="24" height="24" rx="12" fill="#F2F0F0"/>
<g clip-path="url(#clip0_4132_3529)">
<path d="M20.0812 21.6652L16.1813 17.7651C14.9458 18.3154 13.6066 18.5944 12.2542 18.5834C9.61507 18.5544 7.08269 17.5376 5.15631 15.7334C4.22361 14.9065 3.41836 13.946 2.76678 12.8834L2.54175 12.4806L2.79901 12.0959C3.87163 10.6103 5.19254 9.32089 6.70355 8.28439L2.8327 4.41364C2.6921 4.27299 2.61316 4.08223 2.61316 3.88336C2.61316 3.68449 2.6921 3.49383 2.8327 3.35318C2.97335 3.21258 3.1641 3.13354 3.36298 3.13354C3.56185 3.13354 3.7526 3.21258 3.89325 3.35318L8.03857 7.49841C9.34484 6.82818 10.7899 6.47314 12.2581 6.46185C14.7672 6.53 17.1551 7.55504 18.933 9.3269C19.8406 10.163 20.6316 11.1173 21.285 12.1641L21.486 12.5092L21.3128 12.8692C20.4249 14.5072 19.1558 15.9076 17.613 16.9521L17.6205 16.9604L17.5456 17.0062L21.1454 20.6061C21.2152 20.6758 21.2705 20.7585 21.3082 20.8495C21.346 20.9406 21.3655 21.0382 21.3655 21.1367C21.3655 21.2353 21.346 21.3329 21.3082 21.424C21.2705 21.515 21.2152 21.5977 21.1454 21.6674C21.0759 21.7371 20.9933 21.7924 20.9023 21.83C20.8113 21.8676 20.7138 21.8867 20.6154 21.8864C20.5161 21.8867 20.4177 21.8672 20.326 21.8293C20.2344 21.7913 20.1512 21.7356 20.0812 21.6652ZM4.33124 12.5452C4.86805 13.3169 5.49366 14.0229 6.19507 14.6489C7.83624 16.195 10.0003 17.065 12.2549 17.0849C13.1996 17.0854 14.1378 16.9272 15.0301 16.6169L13.4662 15.0539C12.8539 15.5046 12.1003 15.721 11.3422 15.6637C10.584 15.6065 9.87138 15.2794 9.33368 14.7419C8.79598 14.2043 8.46899 13.4917 8.41174 12.7335C8.3545 11.9753 8.57096 11.2216 9.02185 10.6094L7.77747 9.36517C6.47221 10.2413 5.31022 11.314 4.3327 12.5452H4.33124ZM9.4201 8.51694C9.62561 8.69619 9.86173 8.90991 10.1362 9.16641C10.8862 9.87066 11.8687 10.8494 13.0507 12.0749C14.5035 13.5816 15.9135 15.1019 16.5878 15.8332C17.8671 14.9855 18.949 13.8726 19.7603 12.5699C19.2156 11.7794 18.5854 11.0514 17.8809 10.3994C16.3884 8.89479 14.3742 8.02232 12.2559 7.96268C11.2859 7.96809 10.3256 8.15613 9.42523 8.51694H9.4201ZM10.395 13.6814C10.6028 13.8891 10.8616 14.0387 11.1453 14.1151C11.4291 14.1916 11.7279 14.1923 12.012 14.1171C11.7757 13.9011 11.5035 13.6746 11.2387 13.4526C11.0595 13.3026 10.875 13.1489 10.7048 13.0027L10.6943 12.9944C10.4971 12.8197 10.2998 12.6329 10.0943 12.4244L9.92474 12.2527C9.8872 12.5113 9.91066 12.775 9.99323 13.023C10.0758 13.2709 10.2152 13.4961 10.4003 13.6806L10.395 13.6814Z" fill="#EF5356"/>
</g>
<defs>
<clipPath id="clip0_4132_3529">
<rect width="24" height="24" fill="white" transform="translate(0 0.509277)"/>
</clipPath>
</defs>
</svg>
