<svg width="86" height="91" viewBox="0 0 86 91" fill="none" xmlns="http://www.w3.org/2000/svg">
<path fill-rule="evenodd" clip-rule="evenodd" d="M43 90.0563C66.7483 90.0563 86 70.767 86 46.9724C86 23.1778 66.7483 3.88846 43 3.88846C19.2517 3.88846 0 23.1778 0 46.9724C0 54.6995 2.03021 61.9514 5.5853 68.222L0 90.0563L22.4671 84.8364C28.5686 88.1649 35.5638 90.0563 43 90.0563ZM43 83.4282C63.0948 83.4282 79.3848 67.1064 79.3848 46.9724C79.3848 26.8387 63.0948 10.5168 43 10.5168C22.9053 10.5168 6.6154 26.8387 6.6154 46.9724C6.6154 54.7463 9.04382 61.9517 13.1821 67.8687L9.92308 80.1138L22.3598 76.9985C28.2246 81.0536 35.3356 83.4282 43 83.4282Z" fill="#C0CFE0"/>
<path d="M79.8571 43.895C79.8571 64.2903 63.3556 80.8241 43 80.8241C35.236 80.8241 28.0326 78.4187 22.0917 74.3113L9.49351 77.4669L12.7948 65.0627C8.60283 59.0688 6.14286 51.7698 6.14286 43.895C6.14286 23.4996 22.6444 6.96588 43 6.96588C63.3556 6.96588 79.8571 23.4996 79.8571 43.895Z" fill="url(#paint0_linear_84_6303)"/>
<path fill-rule="evenodd" clip-rule="evenodd" d="M43 86.9789C66.7483 86.9789 86 67.6896 86 43.895C86 20.1004 66.7483 0.811035 43 0.811035C19.2517 0.811035 0 20.1004 0 43.895C0 51.6221 2.03021 58.874 5.5853 65.1446L0 86.9789L22.4671 81.759C28.5686 85.0875 35.5638 86.9789 43 86.9789ZM43 80.3507C63.0948 80.3507 79.3848 64.029 79.3848 43.895C79.3848 23.7611 63.0948 7.43934 43 7.43934C22.9053 7.43934 6.6154 23.7611 6.6154 43.895C6.6154 51.6688 9.04382 58.8743 13.1821 64.7913L9.92308 77.0364L22.3598 73.9211C28.2246 77.9762 35.3356 80.3507 43 80.3507Z" fill="white"/>
<path d="M32.25 23.8914C31.2278 21.8339 29.6593 22.016 28.075 22.016C25.2435 22.016 20.8281 25.4144 20.8281 31.7391C20.8281 36.9225 23.1077 42.5963 30.7892 51.0841C38.2024 59.2756 47.9432 63.5129 56.0296 63.3686C64.1161 63.2246 65.7799 56.252 65.7799 53.8975C65.7799 52.854 65.1333 52.3333 64.6883 52.1917C61.9326 50.8666 56.85 48.3975 55.6936 47.9338C54.5372 47.47 53.9334 48.0975 53.558 48.4388C52.5094 49.4399 50.4307 52.3911 49.7188 53.0549C49.0071 53.7187 47.9459 53.3827 47.5042 53.1319C45.8792 52.4785 41.4732 50.5148 37.9613 47.1035C33.6177 42.885 33.3628 41.4333 32.5445 40.1414C31.89 39.1077 32.3704 38.4738 32.61 38.1965C33.5458 37.1148 34.838 35.4444 35.4176 34.6144C35.9968 33.7841 35.537 32.5239 35.2609 31.7391C34.0738 28.3632 33.0679 25.5372 32.25 23.8914Z" fill="white"/>
<defs>
<linearGradient id="paint0_linear_84_6303" x1="80.625" y1="11.9667" x2="-2.7724" y2="86.9738" gradientUnits="userSpaceOnUse">
<stop stop-color="#5BD066"/>
<stop offset="1" stop-color="#27B43E"/>
</linearGradient>
</defs>
</svg>
