<svg width="61" height="57" viewBox="0 0 61 57" fill="none" xmlns="http://www.w3.org/2000/svg">
<path fill-rule="evenodd" clip-rule="evenodd" d="M28.5101 26.1944L27.6055 25.2856C25.8238 23.4954 22.9368 23.4954 21.155 25.2856L6.07085 40.441L3.67794 38.0383C3.08351 37.4426 2.12118 37.4426 1.52827 38.0398C0.935368 38.6355 0.935368 39.6039 1.52827 40.1996L8.04872 46.7448L5.35936 49.4529L3.09416 47.1786C2.50125 46.5828 1.5374 46.5828 0.94449 47.1801C0.351584 47.7758 0.351584 48.7442 0.94601 49.3399L7.58656 56.0088C8.18099 56.6045 9.14484 56.6045 9.73775 56.0072C10.3307 55.4115 10.3307 54.4431 9.73623 53.8474L7.51055 51.6112L10.1984 48.9046L16.728 55.4589C17.3224 56.0546 18.2847 56.0546 18.8776 55.4589C19.4705 54.8616 19.4705 53.8948 18.8776 53.2975L16.8253 51.237L31.9048 36.0862C33.6866 34.296 33.6866 31.3954 31.9048 29.6052L30.6597 28.3542L37.1224 21.8534C37.7153 21.2562 37.7138 20.2878 37.1209 19.6921C36.5265 19.0964 35.5626 19.0979 34.9697 19.6936L28.5101 26.1944ZM14.6741 49.0787L29.7552 33.9264C30.3496 33.3292 30.3496 32.3623 29.7552 31.765L25.4558 27.4454C24.8614 26.8482 23.8991 26.8482 23.3062 27.4454L22.0018 28.7544L23.6863 30.4468C24.2792 31.0426 24.2792 32.011 23.6863 32.6067C23.0933 33.2039 22.1295 33.2039 21.5366 32.6067L19.8521 30.9158L17.4197 33.3597L19.1041 35.0506C19.6971 35.6463 19.6971 36.6147 19.1041 37.2104C18.5097 37.8076 17.5474 37.8076 16.9545 37.2104L15.27 35.5195L12.8802 37.9191L14.5646 39.6116C15.1575 40.2073 15.1575 41.1757 14.5646 41.7714C13.9717 42.3686 13.0079 42.3686 12.4149 41.7714L10.7305 40.0805L8.22204 42.6008L14.6741 49.0787Z" fill="#443900"/>
<path d="M58.1418 9.24903C57.3871 8.98134 55.3114 7.81541 49.8879 3.01329C47.7562 1.12593 44.9151 0.239527 42.093 0.581295C39.8355 0.854805 37.7517 1.89395 36.1758 3.49759C34.5996 1.89414 32.5158 0.854614 30.2586 0.581295C27.4361 0.239336 24.5954 1.12583 22.4637 3.01329C17.0403 7.81541 14.9645 8.98134 14.2098 9.24903L11.8514 10.0854L22.0193 19.4106C25.8974 22.9673 30.9248 24.9262 36.1757 24.9262C41.4265 24.9262 46.454 22.9674 50.3321 19.4106L60.5 10.0854L58.1418 9.24903ZM48.3127 17.1879C44.9879 20.2372 40.6776 21.9165 36.1758 21.9165C31.674 21.9165 27.3637 20.2372 24.0389 17.1879L19.9054 13.397C20.9142 13.3918 21.9655 13.3342 23.0346 13.2752C27.4191 13.0339 31.9527 12.7837 35.1848 15.6499L36.1758 16.5289L37.1669 15.6498C40.3989 12.7836 44.9326 13.0339 49.317 13.2751C50.3863 13.334 51.4375 13.3916 52.4463 13.3968L48.3127 17.1879ZM49.481 10.2701C45.3122 10.0404 40.2026 9.75853 36.1758 12.6069C32.149 9.75843 27.0397 10.0402 22.8704 10.2701C21.2055 10.3618 19.592 10.4503 18.2544 10.3292C19.6412 9.33934 21.6168 7.77465 24.444 5.27125C25.9359 3.95029 27.9242 3.33024 29.8998 3.56919C31.8781 3.80881 33.6659 4.88834 34.8049 6.53102L36.1756 8.50773L37.5463 6.53102C38.6853 4.88824 40.4732 3.80871 42.4514 3.56919C44.4267 3.32985 46.4153 3.95029 47.9072 5.27125C50.7344 7.77456 52.7099 9.33934 54.0969 10.3291C52.7593 10.4502 51.1458 10.3617 49.481 10.2701Z" fill="#443900"/>
</svg>
