<svg width="142" height="43" viewBox="0 0 142 43" fill="none" xmlns="http://www.w3.org/2000/svg">
<path d="M40.7728 26.3304C41.5864 26.3304 42.246 25.6708 42.246 24.8572C42.246 24.0435 41.5864 23.3839 40.7728 23.3839C39.9591 23.3839 39.2995 24.0435 39.2995 24.8572C39.2995 25.6708 39.9591 26.3304 40.7728 26.3304Z" fill="#C5C463"/>
<path d="M25.8791 29.6814C26.6928 29.6814 27.3524 29.0218 27.3524 28.2081C27.3524 27.3945 26.6928 26.7349 25.8791 26.7349C25.0655 26.7349 24.4059 27.3945 24.4059 28.2081C24.4059 29.0218 25.0655 29.6814 25.8791 29.6814Z" fill="#C5C463"/>
<path d="M36.9252 41.5958C37.7388 41.5958 38.3984 40.9362 38.3984 40.1226C38.3984 39.309 37.7388 38.6494 36.9252 38.6494C36.1116 38.6494 35.452 39.309 35.452 40.1226C35.452 40.9362 36.1116 41.5958 36.9252 41.5958Z" fill="#C5C463"/>
<path d="M34.815 32.8571C35.8062 32.8571 36.6097 32.0536 36.6097 31.0624C36.6097 30.0713 35.8062 29.2678 34.815 29.2678C33.8238 29.2678 33.0203 30.0713 33.0203 31.0624C33.0203 32.0536 33.8238 32.8571 34.815 32.8571Z" fill="#EF5356"/>
<path d="M43.1616 32.3669C42.8305 31.9721 42.4501 31.566 42.0296 31.1578C42.4469 30.7458 42.8241 30.3365 43.1519 29.9396C44.691 28.0747 45.1753 26.4445 44.5159 25.349C43.8564 24.2534 42.1892 23.918 39.8208 24.405C39.3885 24.4939 38.9288 24.6113 38.4515 24.7548C38.3283 24.2716 38.1917 23.8173 38.0449 23.4016C37.2407 21.1216 36.0938 19.8658 34.815 19.8658C33.5362 19.8658 32.3892 21.1216 31.5851 23.4016C31.4335 23.8313 31.2937 24.2995 31.1678 24.7966C30.676 24.652 30.2013 24.5347 29.7545 24.4463C27.3824 23.978 25.7179 24.3268 25.067 25.4282C24.4166 26.5292 24.9138 28.1556 26.4679 30.0076C26.799 30.4019 27.1788 30.808 27.5999 31.2167C27.1825 31.6287 26.8054 32.038 26.4775 32.435C24.9384 34.2998 24.4541 35.93 25.1136 37.0256C25.5716 37.7868 26.5247 38.1892 27.8699 38.1892C28.4479 38.1892 29.1004 38.1152 29.8087 37.9701C30.241 37.8811 30.7006 37.7638 31.178 37.6202C31.3012 38.1029 31.4378 38.5578 31.5846 38.9735C32.3887 41.2535 33.5357 42.5092 34.8145 42.5092C36.0932 42.5092 37.2402 41.2535 38.0443 38.9735C38.1959 38.5438 38.3358 38.0756 38.4617 37.5784C38.9534 37.7231 39.4281 37.8404 39.8749 37.9288C40.5612 38.0644 41.1954 38.1329 41.759 38.1329C43.1342 38.1329 44.1034 37.7231 44.5619 36.9468C45.2123 35.8459 44.7152 34.2195 43.161 32.3675L43.1616 32.3669ZM39.1726 30.2594C39.5679 30.5589 39.9435 30.8605 40.2944 31.161C39.9408 31.4707 39.5658 31.7787 39.1736 32.0814C39.1827 31.776 39.187 31.4766 39.187 31.1867C39.187 30.8969 39.1822 30.5755 39.1726 30.2594ZM41.159 30.3585C40.5285 29.8115 39.8342 29.2705 39.0906 28.7471C39.0113 27.7544 38.8833 26.8013 38.7102 25.9088C39.8781 25.5557 40.9367 25.3699 41.7815 25.3699C42.6703 25.3699 43.2848 25.5772 43.5114 25.9538C43.9073 26.6117 43.3271 28.222 41.1596 30.359L41.159 30.3585ZM39.0922 33.6045C39.8401 33.0698 40.5381 32.5169 41.1708 31.9587C41.579 32.353 41.946 32.7435 42.2631 33.1212C43.438 34.5216 43.9201 35.7286 43.5532 36.3495C43.1728 36.9929 41.5335 37.2559 38.7183 36.4224C38.8886 35.5347 39.0145 34.5886 39.0922 33.6045ZM37.8295 34.4595C37.7658 35.0086 37.6854 35.5411 37.5906 36.05C37.1202 35.8786 36.6364 35.6836 36.1457 35.4666C36.4602 35.292 36.7698 35.1131 37.0698 34.9325C37.3184 34.783 37.5729 34.6245 37.8295 34.4595ZM37.3377 37.2104C36.6231 40.0583 35.5629 41.336 34.8155 41.336C34.0682 41.336 33.0166 40.069 32.3019 37.2458C33.1253 36.9452 33.976 36.5788 34.8359 36.1545C35.6845 36.5643 36.525 36.9195 37.3382 37.2104H37.3377ZM32.5912 34.9507C32.8923 35.1286 33.2035 35.3054 33.5191 35.4773C33.0198 35.7029 32.5269 35.9059 32.0464 36.0843C31.9489 35.5668 31.8669 35.0257 31.8021 34.468C32.0683 34.6368 32.3324 34.798 32.5912 34.9513V34.9507ZM31.801 27.914C31.8648 27.3649 31.9451 26.8324 32.0399 26.3234C32.5103 26.4949 32.9941 26.6899 33.4848 26.9068C33.1703 27.0815 32.8607 27.2604 32.5607 27.441C32.3121 27.5904 32.0576 27.749 31.801 27.914ZM32.2928 25.1631C33.0075 22.3152 34.0677 21.0375 34.815 21.0375C35.5623 21.0375 36.6139 22.3044 37.3286 25.1277C36.5052 25.4282 35.6545 25.7947 34.7946 26.219C33.946 25.8091 33.106 25.4545 32.2923 25.1631H32.2928ZM37.0393 27.4227C36.7372 27.2443 36.4259 27.0676 36.1098 26.8956C36.607 26.6711 37.1004 26.4681 37.5836 26.2892C37.6811 26.8067 37.7631 27.3483 37.8284 27.906C37.5622 27.7372 37.2981 27.576 37.0393 27.4227ZM38.0138 31.1867C38.0138 31.7744 37.9956 32.3723 37.9602 32.9648C37.4716 33.3007 36.9686 33.6243 36.465 33.9275C35.933 34.2479 35.3834 34.5548 34.8305 34.8414C34.2755 34.5591 33.7237 34.2564 33.1885 33.9404C32.6775 33.6382 32.1674 33.3157 31.6719 32.9814C31.6355 32.3841 31.6173 31.7803 31.6173 31.1867C31.6173 30.5932 31.6355 30.0012 31.6708 29.4087C32.1599 29.0728 32.6625 28.7492 33.1666 28.446C33.7034 28.1229 34.2525 27.8154 34.8005 27.5315C35.3555 27.8138 35.9079 28.1165 36.4436 28.4331C36.9541 28.7347 37.4641 29.0572 37.9602 29.3921C37.9967 29.9899 38.0149 30.5932 38.0149 31.1867H38.0138ZM26.0779 26.024C26.289 25.6666 26.8884 25.4266 27.8618 25.4266C28.6413 25.4266 29.6608 25.5804 30.9128 25.9511C30.7424 26.8388 30.6165 27.7854 30.5388 28.769C29.791 29.3037 29.0929 29.8565 28.4602 30.4148C28.052 30.0205 27.685 29.6299 27.3679 29.2522C26.1931 27.8519 25.7109 26.6449 26.0784 26.0234L26.0779 26.024ZM30.458 32.1141C30.0626 31.8151 29.6876 31.513 29.3361 31.2125C29.6897 30.9028 30.0647 30.5948 30.4569 30.2921C30.4478 30.5974 30.4435 30.8969 30.4435 31.1867C30.4435 31.4766 30.4483 31.798 30.458 32.1141ZM28.4715 32.015C29.1015 32.5614 29.7963 33.1025 30.5399 33.6264C30.6192 34.6186 30.7472 35.5722 30.9203 36.4647C28.1324 37.3084 26.5027 37.0567 26.1191 36.4202C25.7232 35.7623 26.3034 34.152 28.471 32.015H28.4715Z" fill="#C5C463"/>
<path d="M7.90026 4.27736C8.62723 2.93805 9.63386 1.89982 10.9223 1.16213C12.2096 0.42551 13.6839 0.0563965 15.3457 0.0563965C17.4843 0.0563965 19.2554 0.591584 20.6569 1.66089C22.0589 2.73073 22.998 4.23075 23.4759 6.16257H18.7722C18.5231 5.4147 18.1026 4.82862 17.5106 4.40272C16.9186 3.97735 16.1868 3.76414 15.3147 3.76414C14.0686 3.76414 13.0818 4.21575 12.3553 5.11898C11.6284 6.02221 11.2651 7.30473 11.2651 8.96601C11.2651 10.6273 11.6284 11.8787 12.3553 12.782C13.0823 13.6852 14.0686 14.1368 15.3147 14.1368C17.0799 14.1368 18.2322 13.3477 18.7728 11.7694H23.4764C22.9985 13.6386 22.0535 15.1236 20.6414 16.224C19.2287 17.3249 17.464 17.8751 15.3457 17.8751C13.6839 17.8751 12.2096 17.5065 10.9223 16.7694C9.63439 16.0322 8.62723 14.9934 7.90026 13.6541C7.17328 12.3148 6.81006 10.7521 6.81006 8.96601C6.81006 7.17991 7.17328 5.6172 7.90026 4.27736Z" fill="#C5C463"/>
<path d="M26.0056 4.26182C26.7009 2.91234 27.6459 1.87411 28.8406 1.14659C30.0342 0.420153 31.3687 0.0563965 32.8435 0.0563965C34.1309 0.0563965 35.2575 0.316222 36.2234 0.835338C37.1893 1.35445 37.9624 2.00911 38.5442 2.79769V0.33658H42.9366V17.5949H38.5442V15.0716C37.9833 15.8817 37.2097 16.5513 36.2234 17.0811C35.2366 17.611 34.0998 17.8756 32.8125 17.8756C31.3585 17.8756 30.0347 17.5017 28.8406 16.7544C27.6459 16.0065 26.7015 14.9527 26.0056 13.5925C25.3097 12.2323 24.962 10.6696 24.962 8.9044C24.962 7.13919 25.3097 5.61292 26.0056 4.26289V4.26182ZM37.9211 6.24025C37.5054 5.4822 36.9445 4.90041 36.2389 4.49593C35.5329 4.09093 34.7748 3.88842 33.9648 3.88842C33.1548 3.88842 32.4074 4.08611 31.7217 4.4804C31.0365 4.87523 30.4805 5.45166 30.0551 6.20918C29.6292 6.96776 29.4165 7.86563 29.4165 8.90386C29.4165 9.9421 29.6292 10.8507 30.0551 11.6296C30.4805 12.4086 31.0414 13.0059 31.7373 13.4211C32.4326 13.8368 33.1751 14.0441 33.9648 14.0441C34.7545 14.0441 35.5329 13.8416 36.2389 13.4366C36.9445 13.0316 37.5054 12.4504 37.9211 11.6923C38.3363 10.9343 38.5442 10.0257 38.5442 8.96655C38.5442 7.90742 38.3363 6.99883 37.9211 6.24079V6.24025Z" fill="#C5C463"/>
<path d="M53.1228 0.86641C54.026 0.347294 55.0589 0.0874684 56.2225 0.0874684V4.66683H55.0696C53.6987 4.66683 52.6658 4.9888 51.9699 5.63274C51.274 6.27668 50.9263 7.39795 50.9263 8.99708V17.5949H46.565V0.33658H50.9263V3.01573C51.4872 2.10179 52.219 1.38553 53.1223 0.86641H53.1228Z" fill="#C5C463"/>
<path d="M61.7362 10.2742C61.8401 11.5203 62.2762 12.497 63.0444 13.2025C63.8126 13.9086 64.7576 14.2616 65.8794 14.2616C67.4995 14.2616 68.6518 13.5663 69.3375 12.1745H74.0412C73.543 13.8363 72.5872 15.2013 71.1751 16.2711C69.7624 17.341 68.0288 17.8756 65.9726 17.8756C64.3108 17.8756 62.821 17.507 61.5026 16.7699C60.1836 16.0327 59.1556 14.9891 58.4184 13.6391C57.6813 12.2891 57.3127 10.7318 57.3127 8.96655C57.3127 7.20134 57.6759 5.61292 58.4029 4.26236C59.1299 2.91287 60.1472 1.87464 61.456 1.14713C62.7642 0.420153 64.2696 0.0569322 65.9732 0.0569322C67.6768 0.0569322 69.0831 0.41051 70.3811 1.11606C71.6786 1.82214 72.6863 2.82448 73.4031 4.122C74.1194 5.42006 74.4778 6.9099 74.4778 8.59207C74.4778 9.21512 74.436 9.77602 74.353 10.2742H61.7362ZM69.96 7.34598C69.9391 6.22471 69.5341 5.32631 68.745 4.65129C67.9554 3.97682 66.99 3.63878 65.8478 3.63878C64.7678 3.63878 63.8592 3.9661 63.1221 4.62022C62.3844 5.27434 61.9328 6.18293 61.7667 7.34598H69.96Z" fill="#C5C463"/>
<path d="M7.90026 25.5188C8.62723 24.1795 9.63386 23.1412 10.9223 22.4036C12.2096 21.6664 13.6839 21.2978 15.3457 21.2978C17.4843 21.2978 19.2554 21.833 20.6569 22.9023C22.0589 23.9722 22.998 25.4722 23.4759 27.404H18.7722C18.5231 26.6567 18.1026 26.07 17.5106 25.6441C16.9186 25.2188 16.1868 25.0056 15.3147 25.0056C14.0686 25.0056 13.0818 25.4572 12.3553 26.3604C11.6284 27.2636 11.2651 28.5462 11.2651 30.2074C11.2651 31.8687 11.6284 33.1202 12.3553 34.0234C13.0823 34.9266 14.0686 35.3782 15.3147 35.3782C17.0799 35.3782 18.2322 34.5891 18.7728 33.0109H23.4764C22.9985 34.88 22.0535 36.365 20.6414 37.4654C19.2287 38.5663 17.464 39.1165 15.3457 39.1165C13.6839 39.1165 12.2096 38.7479 10.9223 38.0108C9.63439 37.2736 8.62723 36.2349 7.90026 34.8955C7.17328 33.5562 6.81006 31.9935 6.81006 30.2074C6.81006 28.4213 7.17328 26.8586 7.90026 25.5193V25.5188Z" fill="#EF5356"/>
<path d="M60.954 23.0277C62.2204 24.3257 62.8542 26.1381 62.8542 28.4637V38.5877H58.4929V29.0551C58.4929 27.6847 58.15 26.6309 57.4648 25.8933C56.7796 25.1561 55.8448 24.7875 54.6614 24.7875C53.478 24.7875 52.5067 25.1566 51.8108 25.8933C51.1149 26.6309 50.7672 27.6847 50.7672 29.0551V38.5877H46.4059V21.3294H50.7672V23.4793C51.3485 22.7314 52.091 22.1453 52.9948 21.7194C53.898 21.2941 54.8896 21.0809 55.9696 21.0809C58.0257 21.0809 59.687 21.7302 60.954 23.0277Z" fill="#EF5356"/>
<path d="M81.5451 23.0277C82.8115 24.3257 83.4453 26.1381 83.4453 28.4637V38.5877H79.0839V29.0551C79.0839 27.6847 78.7411 26.6309 78.0559 25.8933C77.3707 25.1561 76.4359 24.7875 75.2524 24.7875C74.069 24.7875 73.0972 25.1566 72.4019 25.8933C71.706 26.6309 71.3583 27.6847 71.3583 29.0551V38.5877H66.997V21.3294H71.3583V23.4793C71.9395 22.7314 72.682 22.1453 73.5853 21.7194C74.4885 21.2941 75.4801 21.0809 76.5601 21.0809C78.6162 21.0809 80.2775 21.7302 81.5445 23.0277H81.5451Z" fill="#EF5356"/>
<path d="M103.507 31.2671H90.8902C90.9941 32.5132 91.4302 33.4893 92.1984 34.1954C92.9667 34.9014 93.9117 35.2545 95.0335 35.2545C96.6535 35.2545 97.8059 34.5591 98.491 33.1673H103.195C102.697 34.8291 101.741 36.1947 100.329 37.2634C98.9164 38.3333 97.1828 38.8679 95.1267 38.8679C93.4649 38.8679 91.975 38.4994 90.6566 37.7622C89.3377 37.025 88.3096 35.9815 87.5725 34.6314C86.8353 33.2819 86.4667 31.7241 86.4667 29.9589C86.4667 28.1936 86.83 26.6052 87.5569 25.2552C88.2839 23.9057 89.3013 22.867 90.61 22.14C91.9183 21.413 93.4236 21.0498 95.1272 21.0498C96.8308 21.0498 98.2371 21.4034 99.5352 22.1089C100.833 22.8155 101.84 23.8173 102.557 25.1148C103.273 26.4129 103.631 27.9028 103.631 29.5849C103.631 30.208 103.59 30.7689 103.506 31.2671H103.507ZM99.1146 28.3388C99.0937 27.2176 98.6887 26.3192 97.8996 25.6441C97.11 24.9697 96.1446 24.6316 95.0024 24.6316C93.9224 24.6316 93.0133 24.959 92.2767 25.6131C91.5395 26.2672 91.0874 27.1758 90.9218 28.3388H99.1146Z" fill="#EF5356"/>
<path d="M106.778 25.2702C107.505 23.9309 108.511 22.8927 109.8 22.155C111.087 21.4178 112.561 21.0492 114.223 21.0492C116.362 21.0492 118.133 21.5844 119.535 22.6537C120.937 23.7236 121.876 25.2236 122.354 27.1554H117.65C117.401 26.4081 116.98 25.8215 116.388 25.3956C115.797 24.9702 115.065 24.757 114.193 24.757C112.946 24.757 111.96 25.2086 111.233 26.1118C110.506 27.0151 110.143 28.2976 110.143 29.9589C110.143 31.6201 110.506 32.8716 111.233 33.7748C111.96 34.678 112.946 35.1297 114.193 35.1297C115.958 35.1297 117.11 34.3405 117.651 32.7623H122.354C121.876 34.6314 120.931 36.1165 119.519 37.2168C118.107 38.3177 116.342 38.8679 114.224 38.8679C112.562 38.8679 111.088 38.4994 109.8 37.7622C108.512 37.025 107.505 35.9863 106.778 34.647C106.051 33.3077 105.688 31.745 105.688 29.9589C105.688 28.1728 106.051 26.6101 106.778 25.2707L106.778 25.2702Z" fill="#EF5356"/>
<path d="M130.639 24.9123V33.2611C130.639 33.8428 130.78 34.2634 131.06 34.5227C131.341 34.7825 131.812 34.9122 132.477 34.9122H134.502V38.5883H131.761C128.085 38.5883 126.247 36.8027 126.247 33.23V24.9123H124.191V21.33H126.247V17.0624H130.64V21.33H134.502V24.9123H130.639Z" fill="#EF5356"/>
</svg>
