<svg width="328" height="242" viewBox="0 0 328 242" fill="none" xmlns="http://www.w3.org/2000/svg">
<g clip-path="url(#clip0_99_8393)">
<path d="M150.121 96.0705C149.483 85.2142 117.235 125.447 117.235 125.447V189.251C107.1 191.865 100.154 200.016 100.154 204.798C100.154 210.864 104.943 215.974 113.882 215.974C113.882 215.974 129.576 215.756 135.115 214.217C140.862 212.621 141.321 208.521 142.299 204.158C146.45 185.638 150.657 105.172 150.121 96.0685V96.0705Z" fill="#FFB27D"/>
<path d="M160.657 207.511C151.718 207.511 146.929 202.403 146.929 196.335C146.929 190.267 158.104 178.772 172.79 180.05C187.476 181.329 224.191 187.075 224.191 191.547C224.191 196.019 222.913 201.445 217.168 201.445C211.423 201.445 160.657 207.511 160.657 207.511Z" fill="#FFB27D"/>
<path d="M163.211 6.6604C189.71 6.9804 186.997 2.34929 220.042 28.3749C240.286 44.3194 267.356 118.962 269.53 128.641C285.812 201.127 202.242 225.706 181.731 206.873C137.911 166.638 198.013 62.8617 184.924 50.7274C171.834 38.5931 163.213 6.66238 163.213 6.66238L163.211 6.6604Z" fill="#FFD19F"/>
<path d="M187.166 98.4656C186.528 87.6093 150.929 94.1545 150.929 94.1545L153.861 194.544C144.393 197.47 137.998 205.158 137.998 209.747C137.998 215.813 144.318 220.236 156.635 221.082C175.791 222.4 179.821 214.058 179.821 209.586C179.821 208.014 187.706 107.676 187.164 98.4636L187.166 98.4656Z" fill="#FFD19F"/>
<path d="M268.729 183.875C276.676 181.476 292.884 178.657 306.358 180.1C325.313 182.132 338.706 206.607 316.303 227.131C309.749 233.135 300.607 235.622 300.607 235.622C300.607 235.622 301.32 230.528 297.314 234.24C283.17 247.339 259.124 239.891 259.124 239.891C259.124 239.891 305.168 220.486 298.051 203.123C293.111 191.07 270.217 195.433 270.217 195.433L268.729 183.875Z" fill="#FFB27D"/>
<path d="M98.5601 25.8208C90.8971 27.7369 77.0099 48.8114 75.573 74.676C74.1362 100.541 78.4467 112.516 82.2782 112.516C86.1097 112.516 95.6885 94.7945 97.6023 81.3822C99.518 67.9698 98.5601 25.8208 98.5601 25.8208Z" fill="#FFB27D"/>
<path d="M119.246 141.483C142.233 146.353 155.802 129.987 168.573 107.795C177.669 91.988 199.223 25.8904 198.265 15.8312C197.307 5.77393 169.531 -0.453217 148.938 0.0257939C128.346 0.504805 97.2167 6.25294 91.9484 26.8484C86.6801 47.4439 89.5954 135.202 119.246 141.483Z" fill="#FFD19F"/>
<path d="M190.03 222.52C181.091 222.52 176.301 217.411 176.301 211.343C176.301 205.275 187.476 193.781 202.162 195.059C216.848 196.337 253.564 202.083 253.564 206.555C253.564 211.027 252.286 216.453 246.541 216.453C240.795 216.453 190.03 222.52 190.03 222.52Z" fill="#FFB27D"/>
<path d="M122.61 88.5415C127.237 87.5835 131.321 91.5249 135.957 91.0399C141.855 90.4218 149.316 86.6592 150.021 87.7683C151.019 89.092 140.518 94.1246 136.331 94.6076C132.016 95.1065 128.584 92.9857 125.114 90.9882C124.375 90.374 120.657 88.947 122.61 88.5415Z" fill="#EF5356"/>
<path d="M109.335 89.6446C108.52 90.5609 105.416 94.2896 101.79 94.5858C98.0653 94.8899 92.8168 92.0118 91.2409 90.2111C90.6805 89.5711 91.0044 88.9052 91.6066 89.0722C94.5299 89.8831 99.0888 91.7614 101.547 91.6322C103.363 91.5368 107.324 88.9947 107.714 88.7084C109.001 87.7623 110.031 88.8615 109.335 89.6426V89.6446Z" fill="#EF5356"/>
<path d="M112.527 123.452C132.201 121.555 137.191 125.606 138.628 129.2C140.065 132.793 126.217 142.332 117.537 142.091C113.222 141.972 100.118 132.692 102.332 126.765C103.689 123.134 108.449 123.845 112.529 123.452H112.527Z" fill="#EF5356"/>
<path d="M148.845 24.3838C160.395 21.2335 179.974 24.8628 187.158 24.8628C194.342 24.8628 202.961 47.8534 202.961 59.3496C202.961 70.8459 190.988 107.726 182.369 114.432C173.748 121.138 166.566 125.449 164.65 116.348C162.734 107.247 144.536 78.0291 142.142 62.2237C139.747 46.4183 143.578 25.8208 148.847 24.3838H148.845Z" fill="#FFB27D"/>
<path d="M245.265 212.941C238.474 206.15 188.754 187.397 186.2 155.464C183.646 123.533 186.52 112.675 201.524 113.633C216.53 114.591 259.313 134.069 270.168 150.036C281.022 166.002 284.534 204.639 280.704 208.151C276.873 211.663 246.543 214.217 245.265 212.941Z" fill="#FFB27D"/>
<path d="M10.0577 217.948C15.6125 217.948 20.1155 216.126 20.1155 213.877C20.1155 211.629 15.6125 209.807 10.0577 209.807C4.503 209.807 0 211.629 0 213.877C0 216.126 4.503 217.948 10.0577 217.948Z" fill="#E0E5E9"/>
<path d="M17.4545 209.208C20.6813 209.208 23.2971 208.15 23.2971 206.843C23.2971 205.537 20.6813 204.478 17.4545 204.478C14.2276 204.478 11.6118 205.537 11.6118 206.843C11.6118 208.15 14.2276 209.208 17.4545 209.208Z" fill="#E0E5E9"/>
<path d="M26.4947 213.341C29.7215 213.341 32.3374 212.282 32.3374 210.975C32.3374 209.669 29.7215 208.61 26.4947 208.61C23.2679 208.61 20.652 209.669 20.652 210.975C20.652 212.282 23.2679 213.341 26.4947 213.341Z" fill="#E0E5E9"/>
<path d="M26.3397 219.536C29.5665 219.536 32.1823 218.477 32.1823 217.171C32.1823 215.865 29.5665 214.806 26.3397 214.806C23.1129 214.806 20.497 215.865 20.497 217.171C20.497 218.477 23.1129 219.536 26.3397 219.536Z" fill="#E0E5E9"/>
<path d="M62.7374 224.895C68.2921 224.895 72.7951 223.072 72.7951 220.824C72.7951 218.576 68.2921 216.754 62.7374 216.754C57.1827 216.754 52.6797 218.576 52.6797 220.824C52.6797 223.072 57.1827 224.895 62.7374 224.895Z" fill="#E0E5E9"/>
<path d="M70.1361 216.153C73.363 216.153 75.9788 215.094 75.9788 213.788C75.9788 212.482 73.363 211.423 70.1361 211.423C66.9093 211.423 64.2935 212.482 64.2935 213.788C64.2935 215.094 66.9093 216.153 70.1361 216.153Z" fill="#E0E5E9"/>
<path d="M79.1744 220.286C82.4012 220.286 85.017 219.227 85.017 217.92C85.017 216.614 82.4012 215.555 79.1744 215.555C75.9476 215.555 73.3317 216.614 73.3317 217.92C73.3317 219.227 75.9476 220.286 79.1744 220.286Z" fill="#E0E5E9"/>
<path d="M79.0194 226.481C82.2462 226.481 84.862 225.422 84.862 224.116C84.862 222.809 82.2462 221.75 79.0194 221.75C75.7926 221.75 73.1767 222.809 73.1767 224.116C73.1767 225.422 75.7926 226.481 79.0194 226.481Z" fill="#E0E5E9"/>
</g>
<defs>
<clipPath id="clip0_99_8393">
<rect width="328" height="242" fill="white"/>
</clipPath>
</defs>
</svg>
