<svg width="27" height="26" viewBox="0 0 27 26" fill="none" xmlns="http://www.w3.org/2000/svg">
<path d="M25.7515 25.5564C26.3037 25.5564 26.7515 25.1087 26.7515 24.5564C26.7515 24.0041 26.3037 23.5564 25.7515 23.5564V25.5564ZM1.75146 23.5564C1.19918 23.5564 0.751465 24.0041 0.751465 24.5564C0.751465 25.1087 1.19918 25.5564 1.75146 25.5564V23.5564ZM1.12345 10.4624C0.69366 10.8093 0.626421 11.4388 0.973266 11.8686C1.32011 12.2984 1.94969 12.3657 2.37948 12.0188L1.12345 10.4624ZM11.5025 3.37135L10.8745 2.59314L10.8745 2.59315L11.5025 3.37135ZM16.0004 3.37135L16.6284 2.59315L16.6284 2.59314L16.0004 3.37135ZM25.1234 12.0188C25.5532 12.3657 26.1828 12.2984 26.5297 11.8686C26.8765 11.4388 26.8093 10.8093 26.3795 10.4624L25.1234 12.0188ZM16.9515 4.58271C16.9515 5.135 17.3992 5.58271 17.9515 5.58271C18.5037 5.58271 18.9515 5.135 18.9515 4.58271H16.9515ZM21.1515 8.21429C21.1515 8.76658 21.5992 9.21429 22.1515 9.21429C22.7037 9.21429 23.1515 8.76658 23.1515 8.21429H21.1515ZM3.15146 24.5564C3.15146 25.1087 3.59918 25.5564 4.15146 25.5564C4.70375 25.5564 5.15146 25.1087 5.15146 24.5564H3.15146ZM5.15146 9.42482C5.15146 8.87253 4.70375 8.42482 4.15146 8.42482C3.59918 8.42482 3.15146 8.87253 3.15146 9.42482H5.15146ZM22.3515 24.5564C22.3515 25.1087 22.7992 25.5564 23.3515 25.5564C23.9037 25.5564 24.3515 25.1087 24.3515 24.5564H22.3515ZM24.3515 9.42482C24.3515 8.87253 23.9037 8.42482 23.3515 8.42482C22.7992 8.42482 22.3515 8.87253 22.3515 9.42482H24.3515ZM16.8243 15.404L17.5346 14.7L17.5344 14.6999L16.8243 15.404ZM10.6787 15.404L9.96852 14.6999L9.96844 14.7L10.6787 15.404ZM25.7515 23.5564H1.75146V25.5564H25.7515V23.5564ZM2.37948 12.0188L12.1306 4.14955L10.8745 2.59315L1.12345 10.4624L2.37948 12.0188ZM12.1305 4.14956C13.0789 3.38423 14.424 3.38423 15.3724 4.14956L16.6284 2.59314C14.9471 1.23637 12.5558 1.23637 10.8745 2.59314L12.1305 4.14956ZM15.3724 4.14955L25.1234 12.0188L26.3795 10.4624L16.6284 2.59315L15.3724 4.14955ZM18.9515 4.58271V2.16166H16.9515V4.58271H18.9515ZM18.9515 2.16166C18.9515 2.37147 18.7806 2.5564 18.5515 2.5564V0.556396C17.6597 0.556396 16.9515 1.2833 16.9515 2.16166H18.9515ZM18.5515 2.5564H21.5515V0.556396H18.5515V2.5564ZM21.5515 2.5564C21.3223 2.5564 21.1515 2.37147 21.1515 2.16166H23.1515C23.1515 1.2833 22.4432 0.556396 21.5515 0.556396V2.5564ZM21.1515 2.16166V8.21429H23.1515V2.16166H21.1515ZM5.15146 24.5564V9.42482H3.15146V24.5564H5.15146ZM24.3515 24.5564V9.42482H22.3515V24.5564H24.3515ZM18.3515 24.5564V18.5038H16.3515V24.5564H18.3515ZM18.3515 18.5038C18.3515 17.6758 18.3536 16.9552 18.2768 16.3793C18.1963 15.7755 18.0133 15.1831 17.5346 14.7L16.114 16.1079C16.1625 16.1568 16.243 16.2583 16.2943 16.6435C16.3494 17.0565 16.3515 17.6198 16.3515 18.5038H18.3515ZM17.5344 14.6999C17.0544 14.2157 16.4636 14.0295 15.8609 13.9477C15.2879 13.87 14.5715 13.8722 13.7515 13.8722V15.8722C14.6285 15.8722 15.1848 15.8743 15.5922 15.9296C15.9699 15.9808 16.067 16.0604 16.1142 16.1081L17.5344 14.6999ZM13.7515 13.8722C12.9315 13.8722 12.215 13.87 11.642 13.9477C11.0394 14.0295 10.4485 14.2157 9.96852 14.6999L11.3888 16.108C11.436 16.0604 11.5331 15.9808 11.9108 15.9296C12.3181 15.8743 12.8744 15.8722 13.7515 15.8722V13.8722ZM9.96844 14.7C9.48966 15.183 9.3066 15.7755 9.22613 16.3793C9.14938 16.9551 9.15146 17.6758 9.15146 18.5038H11.1515C11.1515 17.6198 11.1536 17.0565 11.2086 16.6435C11.2599 16.2583 11.3405 16.1568 11.3889 16.1079L9.96844 14.7ZM9.15146 18.5038V24.5564H11.1515V18.5038H9.15146ZM15.1515 9.42482C15.1515 10.2179 14.5165 10.8459 13.7515 10.8459V12.8459C15.6375 12.8459 17.1515 11.306 17.1515 9.42482H15.1515ZM13.7515 10.8459C12.9864 10.8459 12.3515 10.2179 12.3515 9.42482H10.3515C10.3515 11.306 11.8654 12.8459 13.7515 12.8459V10.8459ZM12.3515 9.42482C12.3515 8.63173 12.9865 8.00376 13.7515 8.00376V6.00376C11.8654 6.00376 10.3515 7.54368 10.3515 9.42482H12.3515ZM13.7515 8.00376C14.5165 8.00376 15.1515 8.63173 15.1515 9.42482H17.1515C17.1515 7.54368 15.6375 6.00376 13.7515 6.00376V8.00376Z" fill="#393F46"/>
</svg>
