<svg width="24" height="24" viewBox="0 0 24 24" fill="none" xmlns="http://www.w3.org/2000/svg">
<path fill-rule="evenodd" clip-rule="evenodd" d="M22.6398 10.3698L21.7674 9.60653V22.1687H23.1627C23.6251 22.1687 24 22.5787 24 23.0843C24 23.5902 23.6251 24 23.1627 24H0.83724C0.374855 24 3.18313e-05 23.5902 3.18313e-05 23.0843C3.18313e-05 22.5787 0.374855 22.1687 0.83724 22.1687H2.23259V9.60653L1.36024 10.3698C0.999178 10.6858 0.472329 10.6217 0.183492 10.2269C-0.105356 9.83191 -0.0468184 9.25565 0.314241 8.93981L9.38501 1.00325C10.9138 -0.334415 13.0862 -0.334415 14.615 1.00325L23.6857 8.93981C24.0468 9.25565 24.1053 9.83191 23.8165 10.2269C23.5277 10.6217 23.0009 10.6858 22.6398 10.3698ZM12 4.4661C10.3046 4.4661 8.93025 5.96926 8.93025 7.8235C8.93025 9.67771 10.3046 11.1808 12 11.1808C13.6954 11.1808 15.0697 9.67771 15.0697 7.8235C15.0697 5.96926 13.6954 4.4661 12 4.4661ZM13.9489 12.4769C13.4367 12.4017 12.7973 12.4017 12.0551 12.4017H11.9449C11.2027 12.4017 10.5632 12.4017 10.0512 12.4769C9.50236 12.5576 8.97629 12.7397 8.54961 13.2064C8.12291 13.673 7.95652 14.2484 7.88273 14.8486C7.81389 15.4086 7.81393 16.108 7.81397 16.9198V22.1687H9.48839H14.5116H16.186V16.9198V16.7689C16.1858 16.0211 16.1818 15.3737 16.1173 14.8486C16.0435 14.2484 15.8771 13.673 15.4504 13.2064C15.0237 12.7397 14.4976 12.5576 13.9489 12.4769Z" fill="#EF5356"/>
<g opacity="0.5">
<path fill-rule="evenodd" clip-rule="evenodd" d="M10.6045 7.91538C10.6045 7.07469 11.2292 6.39319 11.9998 6.39319C12.7705 6.39319 13.3952 7.07469 13.3952 7.91538C13.3952 8.75612 12.7705 9.43758 11.9998 9.43758C11.2292 9.43758 10.6045 8.75612 10.6045 7.91538Z" fill="#EF5356"/>
<path fill-rule="evenodd" clip-rule="evenodd" d="M10.6045 7.91538C10.6045 7.07469 11.2292 6.39319 11.9998 6.39319C12.7705 6.39319 13.3952 7.07469 13.3952 7.91538C13.3952 8.75612 12.7705 9.43758 11.9998 9.43758C11.2292 9.43758 10.6045 8.75612 10.6045 7.91538Z" fill="#EF5356"/>
</g>
<path opacity="0.5" d="M12.0527 12C12.7618 12 13.3729 11.9999 13.8622 12.0756C14.3867 12.1567 14.8893 12.3397 15.2971 12.8088C15.7047 13.278 15.8638 13.8563 15.9343 14.4597C15.9959 14.9874 15.9998 15.6384 16 16.39V21.8182H8V16.5416C7.99997 15.7258 7.99993 15.0227 8.06572 14.4597C8.13623 13.8563 8.29522 13.278 8.70295 12.8088C9.11068 12.3397 9.61336 12.1567 10.1378 12.0756C10.6271 11.9999 11.2382 12 11.9473 12H12.0527Z" fill="#EF5356"/>
<path opacity="0.5" d="M16.5714 0H19.4286C19.7441 0 20 0.263184 20 0.587831V5.45455L16 2.16269V0.587831C16 0.263184 16.2559 0 16.5714 0Z" fill="#EF5356"/>
</svg>
