<svg width="27" height="20" viewBox="0 0 27 20" fill="none" xmlns="http://www.w3.org/2000/svg">
<path d="M19.8185 0C21.216 0 22.2892 1.05375 23.0842 2.18709L23.3532 2.58881L23.5997 2.98763C23.6781 3.11902 23.7528 3.24835 23.8239 3.37401C24.8187 5.13281 25.6841 7.42902 26.2571 9.69687C26.8264 11.9491 27.1397 14.2994 26.9393 16.1488C26.7384 18.0044 25.7719 20 23.6096 20C21.6715 20 20.1436 18.9748 18.9019 17.9734L17.4986 16.8094C16.3348 15.8651 15.0577 15 13.4999 15C11.9422 15 10.6651 15.8651 9.5013 16.8094L8.09799 17.9734C6.85624 18.9748 5.32833 20 3.39036 20C1.22811 20 0.261653 18.0044 0.0606737 16.1488C-0.139648 14.2994 0.17356 11.9491 0.742794 9.69687C1.31593 7.42904 2.18124 5.13283 3.1761 3.37403L3.40031 2.98763L3.64673 2.58881L3.91582 2.18709C4.71076 1.05374 5.78399 0 7.18147 0C7.82555 0 8.46691 0.154912 9.09623 0.338604L9.84505 0.564777C9.96869 0.602084 10.0917 0.638523 10.214 0.673087C11.3078 0.9822 12.4258 1.25 13.4999 1.25C14.5741 1.25 15.6921 0.9822 16.7859 0.6731L17.9037 0.338601C18.533 0.154907 19.1744 0 19.8185 0ZM9.07699 5C7.33219 5 5.91774 6.39911 5.91774 8.125C5.91774 9.85087 7.33219 11.25 9.07699 11.25C10.8218 11.25 12.2362 9.85087 12.2362 8.125C12.2362 6.39911 10.8218 5 9.07699 5ZM17.9229 5C17.225 5 16.6592 5.55965 16.6592 6.25V6.875H16.0273C15.3294 6.875 14.7636 7.43465 14.7636 8.125C14.7636 8.81538 15.3294 9.375 16.0273 9.375H16.6592V10C16.6592 10.6904 17.225 11.25 17.9229 11.25C18.6208 11.25 19.1866 10.6904 19.1866 10V9.375H19.8185C20.5164 9.375 21.0822 8.81538 21.0822 8.125C21.0822 7.43465 20.5164 6.875 19.8185 6.875H19.1866V6.25C19.1866 5.55965 18.6208 5 17.9229 5ZM9.07699 7.5C9.42595 7.5 9.70884 7.77987 9.70884 8.125C9.70884 8.47013 9.42595 8.75 9.07699 8.75C8.72803 8.75 8.44514 8.47013 8.44514 8.125C8.44514 7.77987 8.72803 7.5 9.07699 7.5Z" fill="#EF5356"/>
</svg>
