<svg width="27" height="23" viewBox="0 0 27 23" fill="none" xmlns="http://www.w3.org/2000/svg">
<path fill-rule="evenodd" clip-rule="evenodd" d="M19.8185 1.86426C20.7827 1.86426 21.5804 2.40717 22.1639 2.97565C22.7721 3.56823 23.3286 4.36275 23.8239 5.23827C24.8187 6.99707 25.6841 9.29328 26.2571 11.5611C26.8264 13.8134 27.1397 16.1636 26.9393 18.013C26.7384 19.8686 25.7719 21.8643 23.6096 21.8643C21.7439 21.8643 20.2583 20.9142 19.0422 19.95L18.5985 19.5895L17.9776 19.0704L17.416 18.6101C16.1292 17.5788 14.9843 16.8643 13.4999 16.8643C12.0156 16.8643 10.8706 17.5788 9.58381 18.6101L9.02222 19.0704L8.40132 19.5895L7.95769 19.95C6.74157 20.9142 5.25597 21.8643 3.39036 21.8643C1.22811 21.8643 0.261653 19.8686 0.0606737 18.013C-0.139648 16.1636 0.17356 13.8134 0.742794 11.5611C1.31593 9.29329 2.18124 6.99708 3.1761 5.23828C3.67135 4.36275 4.22777 3.56823 4.83601 2.97565C5.41951 2.40716 6.21722 1.86426 7.18147 1.86426C7.83281 1.86426 8.46758 2.01782 9.09392 2.20134L9.84202 2.42804C9.9662 2.46558 10.0902 2.50235 10.214 2.53735C11.3078 2.84646 12.4258 3.11426 13.4999 3.11426C14.5741 3.11426 15.6921 2.84646 16.7859 2.53736L17.9037 2.20286C18.533 2.01916 19.1744 1.86426 19.8185 1.86426ZM19.819 4.36462C19.3344 4.36462 18.8287 4.5088 18.3384 4.66757L17.7597 4.85682C17.6652 4.88677 17.572 4.91523 17.4802 4.94116C16.3625 5.25706 14.9531 5.61426 13.4999 5.61426C12.0468 5.61426 10.6374 5.25706 9.51969 4.94117L9.24038 4.85685L8.66178 4.66752C8.17148 4.50862 7.66576 4.36426 7.18147 4.36426C6.65305 4.4614 6.17905 5.09526 5.82194 5.68354L5.62219 6.02638L5.38173 6.45898C4.52055 7.98143 3.72729 10.0603 3.19473 12.1674C2.69657 14.1385 2.45436 16.0251 2.54647 17.431L2.57904 17.7966L2.60393 18.0164L2.64236 18.2773C2.72924 18.7783 2.9176 19.3643 3.39036 19.3643C4.41691 19.3643 5.27211 18.8594 6.33862 18.0213L6.84725 17.6115L7.80704 16.8165L8.24304 16.4666C9.58764 15.4131 11.2692 14.3643 13.4999 14.3643C15.7308 14.3643 17.4123 15.4131 18.7569 16.4666L19.1929 16.8165L20.1526 17.6115L20.6612 18.0213C21.7277 18.8594 22.583 19.3643 23.6096 19.3643C24.0394 19.3643 24.2342 18.88 24.3313 18.4155L24.379 18.1432L24.4263 17.7468C24.5815 16.3149 24.3417 14.2901 23.8053 12.1674C23.317 10.2359 22.6098 8.32811 21.832 6.85089L21.3778 6.02649L21.1781 5.68371C20.8211 5.09555 20.3473 4.46179 19.819 4.36462ZM9.07699 6.86426C10.8218 6.86426 12.2362 8.26337 12.2362 9.98926C12.2362 11.7151 10.8218 13.1143 9.07699 13.1143C7.33219 13.1143 5.91774 11.7151 5.91774 9.98926C5.91774 8.26337 7.33219 6.86426 9.07699 6.86426ZM17.9229 6.86426C18.571 6.86426 19.1051 7.34681 19.1781 7.96848L19.1866 8.11426V8.73926H19.8185C20.5164 8.73926 21.0822 9.29891 21.0822 9.98926C21.0822 10.6303 20.5943 11.1586 19.9658 11.2308L19.8185 11.2393H19.1866V11.8643C19.1866 12.5546 18.6208 13.1143 17.9229 13.1143C17.2748 13.1143 16.7407 12.6317 16.6677 12.01L16.6592 11.8643V11.2393H16.0273C15.3294 11.2393 14.7636 10.6796 14.7636 9.98926C14.7636 9.34822 15.2515 8.81988 15.88 8.74767L16.0273 8.73926H16.6592V8.11426C16.6592 7.42391 17.225 6.86426 17.9229 6.86426ZM9.07699 9.36426C8.72803 9.36426 8.44514 9.64413 8.44514 9.98926C8.44514 10.3344 8.72803 10.6143 9.07699 10.6143C9.42595 10.6143 9.70884 10.3344 9.70884 9.98926C9.70884 9.64413 9.42595 9.36426 9.07699 9.36426Z" fill="#393F46"/>
</svg>
