<svg width="25" height="25" viewBox="0 0 25 25" fill="none" xmlns="http://www.w3.org/2000/svg">
<mask id="path-1-inside-1_4035_406" fill="white">
<path fill-rule="evenodd" clip-rule="evenodd" d="M23.054 7.8323C23.0592 5.93559 22.5016 4.59495 21.6376 3.72985C20.7733 2.86445 19.4319 2.30426 17.534 2.30426H7.47798C5.58035 2.30426 4.23838 2.86433 3.37222 3.73049C2.50605 4.59665 1.94598 5.93863 1.94598 7.83626V17.8803C1.94598 19.7849 2.50667 21.1299 3.37285 21.9972C4.23883 22.8642 5.58038 23.4243 7.47798 23.4243H17.522C19.4196 23.4243 20.7616 22.8642 21.6277 21.998C22.4939 21.1319 23.054 19.7899 23.054 17.8923V7.8323ZM7.47798 0.864258H17.534C21.902 0.864258 24.506 3.46826 24.494 7.83626V17.8923C24.494 22.2603 21.89 24.8643 17.522 24.8643H7.47798C3.10998 24.8643 0.505981 22.2603 0.505981 17.8803V7.83626C0.505981 3.46826 3.10998 0.864258 7.47798 0.864258Z"/>
<path d="M18.506 8.36426H6.50598C6.01398 8.36426 5.60598 7.95626 5.60598 7.46426C5.60598 6.97226 6.01398 6.56426 6.50598 6.56426H18.506C18.998 6.56426 19.406 6.97226 19.406 7.46426C19.406 7.95626 18.998 8.36426 18.506 8.36426Z"/>
<path d="M18.506 13.7643H6.50598C6.01398 13.7643 5.60598 13.3563 5.60598 12.8643C5.60598 12.3723 6.01398 11.9643 6.50598 11.9643H18.506C18.998 11.9643 19.406 12.3723 19.406 12.8643C19.406 13.3563 18.998 13.7643 18.506 13.7643Z"/>
<path d="M18.506 19.1643H6.50598C6.01398 19.1643 5.60598 18.7563 5.60598 18.2643C5.60598 17.7723 6.01398 17.3643 6.50598 17.3643H18.506C18.998 17.3643 19.406 17.7723 19.406 18.2643C19.406 18.7563 18.998 19.1643 18.506 19.1643Z"/>
</mask>
<path d="M23.054 7.8323L20.554 7.82543V7.8323H23.054ZM21.6376 3.72985L23.4065 1.9632L23.4065 1.96319L21.6376 3.72985ZM3.37285 21.9972L5.14173 20.2305L5.14173 20.2305L3.37285 21.9972ZM24.494 7.83626L21.994 7.82939V7.83626H24.494ZM19.8687 5.49651C20.1587 5.78682 20.5578 6.42996 20.554 7.82543L25.554 7.83918C25.5606 5.44122 24.8446 3.40309 23.4065 1.9632L19.8687 5.49651ZM17.534 4.80426C18.9327 4.80426 19.578 5.20539 19.8687 5.49651L23.4065 1.96319C21.9686 0.523515 19.9311 -0.195742 17.534 -0.195742V4.80426ZM7.47798 4.80426H17.534V-0.195742H7.47798V4.80426ZM5.13998 5.49826C5.43317 5.20507 6.07998 4.80426 7.47798 4.80426V-0.195742C5.08073 -0.195742 3.04358 0.523593 1.60445 1.96272L5.13998 5.49826ZM4.44598 7.83626C4.44598 6.43826 4.84679 5.79145 5.13998 5.49826L1.60445 1.96272C0.165317 3.40186 -0.554019 5.43901 -0.554019 7.83626H4.44598ZM4.44598 17.8803V7.83626H-0.554019V17.8803H4.44598ZM5.14173 20.2305C4.84848 19.9369 4.44598 19.2871 4.44598 17.8803H-0.554019C-0.554019 20.2827 0.164862 22.3229 1.60398 23.7638L5.14173 20.2305ZM7.47798 20.9243C6.08007 20.9243 5.43442 20.5236 5.14173 20.2305L1.60398 23.7638C3.04324 25.2049 5.0807 25.9243 7.47798 25.9243V20.9243ZM17.522 20.9243H7.47798V25.9243H17.522V20.9243ZM19.86 20.2303C19.5668 20.5234 18.92 20.9243 17.522 20.9243V25.9243C19.9192 25.9243 21.9564 25.2049 23.3955 23.7658L19.86 20.2303ZM20.554 17.8923C20.554 19.2903 20.1532 19.9371 19.86 20.2303L23.3955 23.7658C24.8346 22.3267 25.554 20.2895 25.554 17.8923H20.554ZM17.534 -1.63574H7.47798V3.36426H17.534V-1.63574ZM26.994 7.84313C27.0013 5.16036 26.1963 2.71881 24.4254 0.945599C22.6549 -0.827093 20.2147 -1.63574 17.534 -1.63574V3.36426C19.2212 3.36426 20.2671 3.85761 20.8876 4.47892C21.5076 5.0997 21.9986 6.14415 21.994 7.82939L26.994 7.84313ZM26.994 17.8923V7.83626H21.994V17.8923H26.994ZM17.522 27.3643C20.2032 27.3643 22.6424 26.5554 24.4137 24.784C26.1851 23.0127 26.994 20.5734 26.994 17.8923H21.994C21.994 19.5791 21.5008 20.6259 20.8782 21.2485C20.2556 21.8711 19.2088 22.3643 17.522 22.3643V27.3643ZM7.47798 27.3643H17.522V22.3643H7.47798V27.3643ZM-1.99402 17.8803C-1.99402 20.5656 -1.18623 23.0079 0.585108 24.7814C2.3568 26.5553 4.79676 27.3643 7.47798 27.3643V22.3643C5.79121 22.3643 4.74516 21.8712 4.12285 21.2481C3.50019 20.6247 3.00598 19.5749 3.00598 17.8803H-1.99402ZM-1.99402 7.83626V17.8803H3.00598V7.83626H-1.99402ZM7.47798 -1.63574C4.7968 -1.63574 2.35759 -0.826883 0.586214 0.944491C-1.18516 2.71586 -1.99402 5.15508 -1.99402 7.83626H3.00598C3.00598 6.14943 3.49912 5.10265 4.12175 4.48002C4.74437 3.8574 5.79116 3.36426 7.47798 3.36426V-1.63574ZM20.554 7.8323V17.8923H25.554V7.8323H20.554ZM18.506 5.86426H6.50598V10.8643H18.506V5.86426ZM6.50598 5.86426C7.39469 5.86426 8.10598 6.57555 8.10598 7.46426H3.10598C3.10598 9.33697 4.63327 10.8643 6.50598 10.8643V5.86426ZM8.10598 7.46426C8.10598 8.35297 7.39469 9.06426 6.50598 9.06426V4.06426C4.63327 4.06426 3.10598 5.59155 3.10598 7.46426H8.10598ZM6.50598 9.06426H18.506V4.06426H6.50598V9.06426ZM18.506 9.06426C17.6173 9.06426 16.906 8.35297 16.906 7.46426H21.906C21.906 5.59155 20.3787 4.06426 18.506 4.06426V9.06426ZM16.906 7.46426C16.906 6.57555 17.6173 5.86426 18.506 5.86426V10.8643C20.3787 10.8643 21.906 9.33697 21.906 7.46426H16.906ZM18.506 11.2643H6.50598V16.2643H18.506V11.2643ZM6.50598 11.2643C7.39469 11.2643 8.10598 11.9755 8.10598 12.8643H3.10598C3.10598 14.737 4.63327 16.2643 6.50598 16.2643V11.2643ZM8.10598 12.8643C8.10598 13.753 7.39469 14.4643 6.50598 14.4643V9.46426C4.63327 9.46426 3.10598 10.9915 3.10598 12.8643H8.10598ZM6.50598 14.4643H18.506V9.46426H6.50598V14.4643ZM18.506 14.4643C17.6173 14.4643 16.906 13.753 16.906 12.8643H21.906C21.906 10.9915 20.3787 9.46426 18.506 9.46426V14.4643ZM16.906 12.8643C16.906 11.9755 17.6173 11.2643 18.506 11.2643V16.2643C20.3787 16.2643 21.906 14.737 21.906 12.8643H16.906ZM18.506 16.6643H6.50598V21.6643H18.506V16.6643ZM6.50598 16.6643C7.39469 16.6643 8.10598 17.3755 8.10598 18.2643H3.10598C3.10598 20.137 4.63327 21.6643 6.50598 21.6643V16.6643ZM8.10598 18.2643C8.10598 19.153 7.39469 19.8643 6.50598 19.8643V14.8643C4.63327 14.8643 3.10598 16.3915 3.10598 18.2643H8.10598ZM6.50598 19.8643H18.506V14.8643H6.50598V19.8643ZM18.506 19.8643C17.6173 19.8643 16.906 19.153 16.906 18.2643H21.906C21.906 16.3915 20.3787 14.8643 18.506 14.8643V19.8643ZM16.906 18.2643C16.906 17.3755 17.6173 16.6643 18.506 16.6643V21.6643C20.3787 21.6643 21.906 20.137 21.906 18.2643H16.906Z" fill="#393F46" mask="url(#path-1-inside-1_4035_406)"/>
</svg>
