<svg width="24" height="24" viewBox="0 0 24 24" fill="none" xmlns="http://www.w3.org/2000/svg">
<path opacity="0.4" d="M17.028 0H6.972C2.604 0 0 2.604 0 6.972V17.016C0 21.396 2.604 24 6.972 24H17.016C21.384 24 23.988 21.396 23.988 17.028V6.972C24 2.604 21.396 0 17.028 0Z" fill="#EF5356"/>
<path d="M17.9996 7.50001H5.99961C5.50761 7.50001 5.09961 7.09201 5.09961 6.60001C5.09961 6.10801 5.50761 5.70001 5.99961 5.70001H17.9996C18.4916 5.70001 18.8996 6.10801 18.8996 6.60001C18.8996 7.09201 18.4916 7.50001 17.9996 7.50001Z" fill="#EF5356"/>
<path d="M17.9996 12.9H5.99961C5.50761 12.9 5.09961 12.492 5.09961 12C5.09961 11.508 5.50761 11.1 5.99961 11.1H17.9996C18.4916 11.1 18.8996 11.508 18.8996 12C18.8996 12.492 18.4916 12.9 17.9996 12.9Z" fill="#EF5356"/>
<path d="M17.9996 18.3H5.99961C5.50761 18.3 5.09961 17.892 5.09961 17.4C5.09961 16.908 5.50761 16.5 5.99961 16.5H17.9996C18.4916 16.5 18.8996 16.908 18.8996 17.4C18.8996 17.892 18.4916 18.3 17.9996 18.3Z" fill="#EF5356"/>
</svg>
