<svg width="27" height="24" viewBox="0 0 27 24" fill="none" xmlns="http://www.w3.org/2000/svg">
<path d="M6.5 15.4268C6.5 15.979 6.94772 16.4268 7.5 16.4268C8.05228 16.4268 8.5 15.979 8.5 15.4268H6.5ZM8.5 8.30176C8.5 7.74947 8.05228 7.30176 7.5 7.30176C6.94772 7.30176 6.5 7.74947 6.5 8.30176H8.5ZM24.2922 15.4243L24.3511 16.4225L24.3525 16.4224L24.2922 15.4243ZM25.4972 14.3169L26.4947 14.3882L26.4947 14.3878L25.4972 14.3169ZM25.4972 9.4116L26.4947 9.34061L26.4947 9.34034L25.4972 9.4116ZM24.2922 8.3043L24.3523 7.30611L24.3523 7.3061L24.2922 8.3043ZM22.8941 3.7555L22.1907 4.46628L22.1907 4.4663L22.8941 3.7555ZM2.90588 3.7555L2.20249 3.04469L2.20249 3.0447L2.90588 3.7555ZM2.90588 19.973L3.60929 19.2622L3.60926 19.2622L2.90588 19.973ZM22.8941 19.973L22.1907 19.2621L22.1907 19.2622L22.8941 19.973ZM20.6894 10.8643C20.1372 10.8643 19.6894 11.312 19.6894 11.8643C19.6894 12.4165 20.1372 12.8643 20.6894 12.8643V10.8643ZM20.7002 12.8643C21.2525 12.8643 21.7002 12.4165 21.7002 11.8643C21.7002 11.312 21.2525 10.8643 20.7002 10.8643V12.8643ZM8.5 15.4268V8.30176H6.5V15.4268H8.5ZM24.1 7.30176H20.977V9.30176H24.1V7.30176ZM20.977 7.30176C18.3648 7.30176 16.1 9.26644 16.1 11.8643H18.1C18.1 10.5269 19.3068 9.30176 20.977 9.30176V7.30176ZM16.1 11.8643C16.1 14.4621 18.3648 16.4268 20.977 16.4268V14.4268C19.3068 14.4268 18.1 13.2016 18.1 11.8643H16.1ZM20.977 16.4268H24.1V14.4268H20.977V16.4268ZM24.1 16.4268C24.1858 16.4268 24.272 16.4272 24.3511 16.4225L24.2333 14.426C24.2352 14.4259 24.2303 14.4263 24.2075 14.4265C24.1835 14.4267 24.152 14.4268 24.1 14.4268V16.4268ZM24.3525 16.4224C25.4339 16.3572 26.4119 15.5467 26.4947 14.3882L24.4998 14.2457C24.4982 14.2679 24.4879 14.3031 24.4449 14.3426C24.4009 14.383 24.3285 14.4202 24.2319 14.4261L24.3525 16.4224ZM26.4947 14.3878C26.5006 14.3047 26.5 14.215 26.5 14.1403H24.5C24.5 14.1887 24.5 14.2159 24.4997 14.2361C24.4995 14.2549 24.4992 14.2543 24.4998 14.246L26.4947 14.3878ZM26.5 14.1403V9.58818H24.5V14.1403H26.5ZM26.5 9.58818C26.5 9.51356 26.5006 9.42377 26.4947 9.34061L24.4998 9.48258C24.4992 9.47419 24.4995 9.47356 24.4997 9.49242C24.5 9.5126 24.5 9.53984 24.5 9.58818H26.5ZM26.4947 9.34034C26.4119 8.18192 25.434 7.37125 24.3523 7.30611L24.2321 9.30249C24.3286 9.3083 24.4009 9.34547 24.4448 9.38589C24.4879 9.42541 24.4982 9.46068 24.4998 9.48285L26.4947 9.34034ZM24.3523 7.3061C24.2725 7.3013 24.1855 7.30176 24.1 7.30176V9.30176C24.1521 9.30176 24.1835 9.30177 24.2073 9.30202C24.2299 9.30226 24.2345 9.30264 24.2321 9.30249L24.3523 7.3061ZM25.2571 8.25986C25.1633 6.02281 24.8646 4.29862 23.5975 3.04469L22.1907 4.4663C22.8632 5.1318 23.1662 6.134 23.2589 8.34366L25.2571 8.25986ZM23.5975 3.04472C22.6774 2.13417 21.5149 1.7353 20.0988 1.5469C18.7104 1.36218 16.9347 1.36426 14.7 1.36426V3.36426C16.9907 3.36426 18.6092 3.36634 19.835 3.52943C21.0332 3.68883 21.7049 3.98558 22.1907 4.46628L23.5975 3.04472ZM14.7 1.36426H11.1V3.36426H14.7V1.36426ZM11.1 1.36426C8.86524 1.36426 7.08961 1.36218 5.70121 1.5469C4.28511 1.7353 3.1226 2.13418 2.20249 3.04469L3.60928 4.4663C4.09506 3.98558 4.76687 3.68883 5.96498 3.52943C7.19079 3.36634 8.80927 3.36426 11.1 3.36426V1.36426ZM2.20249 3.0447C1.28093 3.95666 0.875901 5.11129 0.684839 6.51759C0.497832 7.89404 0.5 9.65364 0.5 11.8643H2.5C2.5 9.59652 2.50217 7.99737 2.66663 6.78684C2.82704 5.60616 3.12495 4.94558 3.60928 4.46629L2.20249 3.0447ZM0.5 11.8643C0.5 14.0748 0.497832 15.8345 0.684839 17.2109C0.875899 18.6172 1.28093 19.7719 2.20251 20.6838L3.60926 19.2622C3.12496 18.7829 2.82704 18.1224 2.66663 16.9417C2.50217 15.7311 2.5 14.132 2.5 11.8643H0.5ZM2.20248 20.6838C3.12259 21.5943 4.2851 21.9932 5.70121 22.1816C7.08961 22.3663 8.86524 22.3643 11.1 22.3643V20.3643C8.80927 20.3643 7.1908 20.3622 5.96498 20.1991C4.76687 20.0397 4.09507 19.7429 3.60929 19.2622L2.20248 20.6838ZM11.1 22.3643H14.7V20.3643H11.1V22.3643ZM14.7 22.3643C16.9347 22.3643 18.7104 22.3663 20.0988 22.1816C21.5149 21.9932 22.6774 21.5943 23.5975 20.6838L22.1907 19.2622C21.7049 19.7429 21.0331 20.0397 19.835 20.1991C18.6092 20.3622 16.9907 20.3643 14.7 20.3643V22.3643ZM23.5974 20.6838C24.8646 19.43 25.1633 17.7057 25.2571 15.4687L23.2589 15.3849C23.1662 17.5946 22.8632 18.5968 22.1907 19.2621L23.5974 20.6838ZM20.6894 12.8643H20.7002V10.8643H20.6894V12.8643Z" fill="#393F46"/>
</svg>
