<svg width="26" height="22" viewBox="0 0 26 22" fill="none" xmlns="http://www.w3.org/2000/svg">
<path d="M5 15C5 15.5523 5.44772 16 6 16C6.55228 16 7 15.5523 7 15V7C7 6.44772 6.55228 6 6 6C5.44772 6 5 6.44772 5 7V15Z" fill="#EF5356"/>
<path fill-rule="evenodd" clip-rule="evenodd" d="M23.7858 6.00472C23.7098 5.99994 23.6269 5.99998 23.541 6L23.5196 6.00002H20.1515C17.3754 6.00002 15 8.17009 15 11C15 13.8299 17.3754 16 20.1515 16H23.5196H23.541C23.6269 16 23.7098 16 23.7858 15.9952C24.9134 15.9246 25.9108 15.0483 25.9946 13.8243C26.0001 13.744 26 13.6575 26 13.5774V13.5555V8.44445V8.42269C26 8.3425 26.0001 8.25599 25.9946 8.17573C25.9108 6.95174 24.9134 6.07543 23.7858 6.00472ZM19.853 12.3334C20.5677 12.3334 21.147 11.7364 21.147 11C21.147 10.2636 20.5677 9.66663 19.853 9.66663C19.1382 9.66663 18.5589 10.2636 18.5589 11C18.5589 11.7364 19.1382 12.3334 19.853 12.3334Z" fill="#EF5356"/>
<path opacity="0.5" d="M24 6.28763C24 4.80343 23.9462 3.21133 22.9998 2.06999C22.9084 1.95981 22.8112 1.85283 22.7077 1.74899C21.7692 0.808192 20.5792 0.39067 19.1091 0.192519C17.6806 -3.74283e-05 15.8553 -1.23658e-05 13.5508 2.05601e-07H10.9014C8.59692 -1.23658e-05 6.77161 -3.74283e-05 5.34309 0.192519C3.87292 0.39067 2.68298 0.808192 1.74456 1.74899C0.806144 2.6898 0.38968 3.88276 0.192031 5.35666C-3.73335e-05 6.78881 -1.23345e-05 8.61873 2.0508e-07 10.9291V11.0709C-1.23345e-05 13.3813 -3.73335e-05 15.2112 0.192031 16.6433C0.38968 18.1172 0.806144 19.3102 1.74456 20.2511C2.68298 21.1918 3.87292 21.6093 5.34309 21.8075C6.7716 22 8.59688 22 10.9013 22H13.5508C15.8553 22 17.6806 22 19.1091 21.8075C20.5792 21.6093 21.7692 21.1918 22.7077 20.2511C22.9641 19.9939 23.1819 19.7175 23.367 19.4211C23.9319 18.5166 24 17.408 24 16.341C23.9396 16.3429 23.8759 16.3429 23.8104 16.3429H20.3328C17.4846 16.3429 15.0475 14.1603 15.0475 11.3143C15.0475 8.4682 17.4846 6.28573 20.3328 6.28573H23.8103C23.8757 6.2857 23.9396 6.28568 24 6.28763Z" fill="#EF5356"/>
</svg>
