<svg width="25" height="25" viewBox="0 0 25 25" fill="none" xmlns="http://www.w3.org/2000/svg">
<path d="M18.0693 15.2762C17.8296 15.1564 16.2715 14.4373 16.0318 14.3174C15.7921 14.1976 15.5524 14.1976 15.3127 14.4373C15.073 14.677 14.5936 15.3961 14.3539 15.6358C14.2341 15.8755 13.9944 15.8755 13.7547 15.7556C12.9157 15.3961 12.0768 14.9167 11.3577 14.3174C10.7584 13.7182 10.1592 12.9991 9.67978 12.28C9.55993 12.0403 9.67978 11.8006 9.79963 11.6807C9.91948 11.5609 10.0393 11.3212 10.279 11.2013C10.3989 11.0815 10.5187 10.8418 10.5187 10.7219C10.6386 10.6021 10.6386 10.3624 10.5187 10.2425C10.3989 10.1227 9.79963 8.68448 9.55993 8.08523C9.44008 7.24628 9.20038 7.24628 8.96068 7.24628C8.84083 7.24628 8.60113 7.24628 8.36143 7.24628C8.12173 7.24628 7.76218 7.48598 7.64233 7.60583C6.92323 8.32493 6.56368 9.16388 6.56368 10.1227C6.68353 11.2013 7.04308 12.28 7.76218 13.2388C9.08053 15.1564 10.7584 16.7144 12.7959 17.6732C13.3951 17.9129 13.8745 18.1526 14.4738 18.2725C15.073 18.5122 15.6723 18.5122 16.3914 18.3923C17.2303 18.2725 17.9494 17.6732 18.4288 16.9541C18.6685 16.4747 18.6685 15.9953 18.5487 15.5159C18.5487 15.5159 18.309 15.3961 18.0693 15.2762ZM21.0655 4.36988C16.3914 -0.304281 8.84083 -0.304281 4.16667 4.36988C0.331467 8.20508 -0.387634 14.0777 2.24907 18.7519L0.571167 24.8643L6.92323 23.1864C8.72098 24.1452 10.6386 24.6246 12.5562 24.6246C19.1479 24.6246 24.4214 19.3511 24.4214 12.7594C24.5412 9.64328 23.2229 6.64703 21.0655 4.36988ZM17.8296 21.1489C16.2715 22.1077 14.4738 22.707 12.5562 22.707C10.7584 22.707 9.08053 22.2276 7.52248 21.3886L7.16293 21.1489L3.44757 22.1077L4.40637 18.5122L4.16667 18.1526C1.29027 13.3586 2.72847 7.36613 7.40263 4.36988C12.0768 1.37362 18.0693 2.93167 20.9457 7.48598C23.8221 12.1601 22.5037 18.2725 17.8296 21.1489Z" fill="#393F46"/>
</svg>
